<?xml version="1.0" encoding="UTF-8" standalone="no"?>
<!-- Created with Inkscape (http://www.inkscape.org/) -->

<svg
   xmlns:osb="http://www.openswatchbook.org/uri/2009/osb"
   xmlns:dc="http://purl.org/dc/elements/1.1/"
   xmlns:cc="http://creativecommons.org/ns#"
   xmlns:rdf="http://www.w3.org/1999/02/22-rdf-syntax-ns#"
   xmlns:svg="http://www.w3.org/2000/svg"
   xmlns="http://www.w3.org/2000/svg"
   xmlns:sodipodi="http://sodipodi.sourceforge.net/DTD/sodipodi-0.dtd"
   xmlns:inkscape="http://www.inkscape.org/namespaces/inkscape"
   width="210mm"
   height="297mm"
   viewBox="0 0 744.09448819 1052.3622047"
   id="svg4136"
   version="1.1"
   inkscape:version="0.91 r13725"
   sodipodi:docname="donut 2 electric boogaloo.svg">
  <defs
     id="defs4138">
    <linearGradient
       id="linearGradient5864"
       osb:paint="solid">
      <stop
         style="stop-color:#000000;stop-opacity:1;"
         offset="0"
         id="stop5866" />
    </linearGradient>
  </defs>
  <sodipodi:namedview
     id="base"
     pagecolor="#ffffff"
     bordercolor="#666666"
     borderopacity="1.0"
     inkscape:pageopacity="0.0"
     inkscape:pageshadow="2"
     inkscape:zoom="0.70710678"
     inkscape:cx="404.8494"
     inkscape:cy="466.97524"
     inkscape:document-units="px"
     inkscape:current-layer="layer1"
     showgrid="false"
     inkscape:window-width="1920"
     inkscape:window-height="1018"
     inkscape:window-x="-8"
     inkscape:window-y="-8"
     inkscape:window-maximized="1" />
  <metadata
     id="metadata4141">
    <rdf:RDF>
      <cc:Work
         rdf:about="">
        <dc:format>image/svg+xml</dc:format>
        <dc:type
           rdf:resource="http://purl.org/dc/dcmitype/StillImage" />
        <dc:title></dc:title>
      </cc:Work>
    </rdf:RDF>
  </metadata>
  <g
     inkscape:label="Layer 1"
     inkscape:groupmode="layer"
     id="layer1">
    <path
       style="fill:#deaa87;fill-opacity:1;stroke:none;stroke-width:1.35501361"
       d="M 363.95695,135.31761 A 249.32249,249.32249 0 0 0 114.63469,384.64183 249.32249,249.32249 0 0 0 363.95695,633.96409 249.32249,249.32249 0 0 0 613.27922,384.64183 249.32249,249.32249 0 0 0 573.58391,250.14573 27.504001,27.504001 0 0 1 557.86906,241.70042 27.504001,27.504001 0 0 1 550.6093,223.05589 54.034409,54.034409 0 0 1 491.29484,209.41136 54.034409,54.034409 0 0 1 477.94719,162.95628 249.32249,249.32249 0 0 0 363.95695,135.31761 Z m 0,161.82422 a 87.5,87.5 0 0 1 87.5,87.5 87.5,87.5 0 0 1 -87.5,87.5 87.5,87.5 0 0 1 -87.5,-87.5 87.5,87.5 0 0 1 87.5,-87.5 z"
       id="path4686"
       inkscape:connector-curvature="0" />
    <path
       sodipodi:nodetypes="ccccsssccccssscssscccsc"
       inkscape:connector-curvature="0"
       id="path4732"
       d="m 362.74602,127.38792 c -1.32062,5.7e-4 -2.64047,0.0105 -3.96094,0.0312 -81.98049,1.45518 -162.2282,44.51458 -207.70117,112.93555 -28.65501,42.18882 -44.07262,96.58564 -44.31836,147.49842 -0.0291,23.18614 7.88313,51.61239 27.97964,51.16654 44.37804,-0.98456 9.49186,-78.32604 59.41651,-78.32604 51.34358,0 46.73947,76.21137 63.35404,76.32151 32.05565,0.21251 27.50017,-27.75768 27.06426,-49.16201 0.40816,-27.63564 15.00376,-58.84472 39.81836,-72.09803 12.02728,-6.8611 25.83975,-10.52969 39.68164,-10.61914 42.03062,-0.99712 80.2794,36.98323 79.48047,79.0625 1.3e-4,0.01 7e-5,0.0199 -9e-5,0.0298 -1.7e-4,0.01 -4.3e-4,0.0198 -7.2e-4,0.0298 -2.8e-4,0.01 -5.8e-4,0.0198 -8e-4,0.0298 -2.3e-4,0.01 -3.9e-4,0.0199 -3.9e-4,0.0298 -1.17269,31.73646 15.01573,71.39199 37.61128,70.96692 34.00676,-0.63974 -0.333,-163.81782 50.35406,-165.0216 72.6094,-1.72442 29.44187,165.01363 53.57531,165.55556 23.19525,0.52087 35.66742,-40.54686 35.9613,-71.50088 -0.18442,-55.9294 -18.4836,-111.81301 -52.9668,-156.0625 -42.38404,-55.51397 -108.04442,-92.66422 -177.66601,-99.39649 -9.19161,-0.98482 -18.43729,-1.47468 -27.68164,-1.4707 z"
       style="fill:none;fill-opacity:1;stroke:none;stroke-width:1.35501361" />
    <path
       style="color:#000000;font-style:normal;font-variant:normal;font-weight:normal;font-stretch:normal;font-size:medium;line-height:normal;font-family:sans-serif;text-indent:0;text-align:start;text-decoration:none;text-decoration-line:none;text-decoration-style:solid;text-decoration-color:#000000;letter-spacing:normal;word-spacing:normal;text-transform:none;direction:ltr;block-progression:tb;writing-mode:lr-tb;baseline-shift:baseline;text-anchor:start;white-space:normal;clip-rule:nonzero;display:inline;overflow:visible;visibility:visible;opacity:1;isolation:auto;mix-blend-mode:normal;color-interpolation:sRGB;color-interpolation-filters:linearRGB;solid-color:#000000;solid-opacity:1;fill:#7aaede;fill-opacity:1;fill-rule:nonzero;stroke:#6a8ede;stroke-width:10;stroke-linecap:round;stroke-linejoin:round;stroke-miterlimit:4;stroke-dasharray:none;stroke-dashoffset:0;stroke-opacity:1;color-rendering:auto;image-rendering:auto;shape-rendering:auto;text-rendering:auto;enable-background:accumulate"
       d="m 362.74406,122.38792 c -1.34424,5.8e-4 -2.68948,0.0102 -4.03711,0.0312 a 5.0005,5.0005 0 0 0 -0.01,0 c -83.66349,1.48511 -165.32051,45.28533 -211.76172,115.14649 -29.30083,43.14898 -44.91943,98.36622 -45.16992,150.26367 a 5.0005,5.0005 0 0 0 0,0.0176 c -0.0153,12.16441 1.95789,25.58212 6.88476,36.50782 2.46344,5.46285 5.69146,10.34705 10.04493,13.96484 4.35346,3.61779 9.95088,5.83698 16.16015,5.69922 12.56029,-0.27866 21.00045,-6.85194 25.33399,-15.39062 4.33354,-8.53873 5.59917,-18.69291 7.12304,-28.36329 1.52388,-9.67038 3.30215,-18.80044 7.00977,-24.86328 3.70762,-6.06284 8.64965,-9.70703 19.83984,-9.70703 11.59895,0 19.38458,4.05477 25.66211,10.41992 6.27753,6.36515 10.82009,15.27153 14.37305,24.4961 3.55295,9.22456 6.09933,18.65268 8.95312,26.20117 1.4269,3.77424 2.89053,7.09726 4.97266,9.88476 2.08213,2.78751 5.37066,5.29192 9.35937,5.31836 8.74021,0.058 15.63558,-1.8374 20.76368,-5.52148 5.12809,-3.68408 8.16192,-8.99034 9.78515,-14.55273 3.23252,-11.07705 1.77232,-23.67813 1.55078,-34.04493 0.39372,-25.92405 14.52477,-55.6348 37.17188,-67.73047 a 5.0005,5.0005 0 0 0 0.12109,-0.0664 c 11.26248,-6.42481 24.2583,-9.87901 37.23828,-9.96289 a 5.0005,5.0005 0 0 0 0.0859,-0.002 c 38.94914,-0.92401 75.10168,34.97484 74.36133,73.96875 a 5.0005,5.0005 0 0 0 0,0.041 c -1.8e-4,0.001 0,0.003 0,0.004 -8e-5,0.005 8e-5,0.0187 0,0.0254 -5e-5,0.002 6e-5,9e-4 0,0.004 -1.4e-4,0.0134 -3e-5,0.0302 0,0.0488 -0.6028,16.76839 3.26277,35.15801 10.39453,49.82227 3.57249,7.34572 7.96941,13.7768 13.32031,18.52929 5.35091,4.7525 11.86642,7.84102 18.98829,7.70703 6.25702,-0.1177 11.26961,-4.44255 14.16601,-9.87109 2.8964,-5.42854 4.54974,-12.27724 5.76953,-20.25781 2.43958,-15.96115 2.88994,-36.49757 3.88672,-56.92578 0.99678,-20.42822 2.57516,-40.74291 6.77539,-55.38477 2.10012,-7.32093 4.8654,-13.1526 8.11524,-16.89258 3.24984,-3.73997 6.67708,-5.57292 11.66601,-5.6914 8.12604,-0.19299 14.10475,1.86908 19.02539,5.58789 4.92064,3.71881 8.83045,9.29404 11.86328,16.43359 6.06567,14.27911 8.31807,34.53926 8.96094,55.06445 0.64287,20.52522 -0.22355,41.28494 0.26758,57.28516 0.24556,8.00011 0.77462,14.7709 2.26562,20.17578 0.7455,2.70244 1.71109,5.12457 3.42969,7.2168 1.7186,2.09222 4.57626,3.72661 7.53125,3.79297 7.28319,0.16355 13.81114,-3.06641 18.93945,-7.99219 5.12832,-4.92578 9.12891,-11.52474 12.33594,-18.97852 6.41407,-14.90751 9.64571,-33.35495 9.79883,-49.48242 a 5.0005,5.0005 0 0 0 0,-0.0625 c -0.15475,-46.93052 -12.82066,-93.79759 -36.93164,-134.11132 a 27.504001,33.574748 47.290168 0 1 -1.08008,1.08203 27.504001,33.574748 47.290168 0 1 -2.26562,1.91797 27.504001,36.672068 47.290168 0 1 -2.16407,2.17187 27.504001,36.672068 47.290168 0 1 -45.60156,4.66406 27.504001,36.672068 47.290168 0 1 -5.4707,-20.29883 54.034409,72.046007 47.290168 0 1 -67.7207,-5.88281 54.034409,72.046007 47.290168 0 1 -2.42188,-64.48242 27.504001,36.672068 47.290168 0 1 -14.5293,-6.98828 27.504001,36.672068 47.290168 0 1 -3.70898,-27.375 c -17.24663,-5.57776 -35.08663,-9.35535 -53.20508,-11.11133 l -0.0156,-0.002 c -9.28595,-0.99437 -18.62515,-1.4878 -27.9629,-1.49219 a 5.0005,5.0005 0 0 0 -0.23828,-0.006 z"
       id="path4152"
       inkscape:connector-curvature="0" />
    <path
       style="fill:#ffffff;fill-opacity:0.50295859;stroke:none;stroke-width:1.35501361"
       d="m 530.68547,295.32737 c -4.4695,0.32406 -7.67504,2.13349 -10.70898,5.625 -3.24984,3.73998 -6.01512,9.57165 -8.11524,16.89258 -2.34083,8.16006 -3.85069,18.11232 -4.91601,28.83399 1.68495,5.98092 2.98138,12.07622 3.83789,18.25586 6.08221,43.70945 -9.36263,89.47474 -40.16993,120.98828 -30.56993,32.40154 -76.09887,51.32871 -120.77343,45.93554 -65.92295,-6.24798 -124.99026,-61.29749 -132.30078,-127.71484 -1.55594,-10.30502 -1.83303,-20.69402 -0.96094,-30.97656 -5.70974,-4.63873 -12.73078,-7.47266 -22.41602,-7.47266 -10.77932,0 -15.75655,3.3891 -19.42187,9.05664 -2.80675,67.94129 31.83965,137.77475 91.39453,172.19922 61.51778,36.7188 144.36921,36.29133 203.67187,-4.90625 61.41327,-41.9864 96.09731,-121.16639 80.04688,-194.23633 -3.71004,-18.28159 -10.25698,-36.00403 -19.16797,-52.48047 z"
       id="path4155"
       inkscape:connector-curvature="0" />
    <path
       style="fill:#ffffff;fill-opacity:0.50295859;stroke:none;stroke-width:1.35501361"
       d="m 366.62688,195.33128 c -1.34708,-0.0123 -2.69399,-0.0104 -4.04102,0.008 -86.22238,-0.34066 -167.97242,66.70399 -183.83594,151.61719 -1.04437,5.22501 -1.83847,10.49396 -2.4082,15.78711 12.92548,-8.04848 29.30204,-6.23309 41.98438,1.56445 8.72373,-58.3319 53.93806,-111.3548 112.67578,-123.2207 11.61451,-2.75269 23.55219,-4.10315 35.48437,-4.17383 58.69673,-0.62807 112.78083,39.65624 135.25781,92.91602 1.9412,-10.42029 4.94866,-20.57597 9.77539,-30.17969 3.56226,-5.8911 9.30668,-9.83627 15.70313,-11.62109 -7.41994,-12.42028 -16.21912,-24.02614 -26.17188,-34.51368 a 54.034409,77.400806 47.290168 0 1 -44.09375,-12.40429 54.034409,77.400806 47.290168 0 1 -10.66992,-27.46875 c -6.50502,-3.05553 -13.21257,-5.71545 -20.10351,-7.92578 -19.16976,-6.62358 -39.35035,-10.20054 -59.55664,-10.38477 z"
       id="path4217"
       inkscape:connector-curvature="0" />
    <rect
       transform="matrix(0.72366108,-0.69015552,0.69015552,0.72366108,0,0)"
       ry="6.6975551"
       y="353.05292"
       x="-158.40404"
       height="13.39511"
       width="41.012188"
       id="rect4286"
       style="fill:#ffe680;fill-opacity:1;stroke:none;stroke-width:10;stroke-linecap:round;stroke-linejoin:round;stroke-miterlimit:4;stroke-dasharray:none;stroke-opacity:1" />
    <rect
       transform="matrix(0.72366108,-0.69015552,0.69015552,0.72366108,0,0)"
       ry="6.6975551"
       y="402.44171"
       x="-68.708717"
       height="13.39511"
       width="41.012188"
       id="rect4288"
       style="fill:#008080;fill-opacity:1;stroke:none;stroke-width:10;stroke-linecap:round;stroke-linejoin:round;stroke-miterlimit:4;stroke-dasharray:none;stroke-opacity:1" />
    <rect
       transform="matrix(0.72366108,-0.69015552,0.69015552,0.72366108,0,0)"
       ry="6.6975551"
       y="321.70602"
       x="-38.613075"
       height="13.39511"
       width="41.012188"
       id="rect4290"
       style="fill:#008080;fill-opacity:1;stroke:none;stroke-width:10;stroke-linecap:round;stroke-linejoin:round;stroke-miterlimit:4;stroke-dasharray:none;stroke-opacity:1" />
    <rect
       transform="matrix(0.72366108,-0.69015552,0.69015552,0.72366108,0,0)"
       ry="6.6975551"
       y="417.94901"
       x="36.688255"
       height="13.39511"
       width="41.012188"
       id="rect4292"
       style="fill:#ffe680;fill-opacity:1;stroke:none;stroke-width:10;stroke-linecap:round;stroke-linejoin:round;stroke-miterlimit:4;stroke-dasharray:none;stroke-opacity:1" />
    <rect
       transform="matrix(0.72366108,-0.69015552,0.69015552,0.72366108,0,0)"
       ry="6.6975551"
       y="342.6098"
       x="113.42486"
       height="13.39511"
       width="41.012188"
       id="rect4294"
       style="fill:#008080;fill-opacity:1;stroke:none;stroke-width:10;stroke-linecap:round;stroke-linejoin:round;stroke-miterlimit:4;stroke-dasharray:none;stroke-opacity:1" />
    <rect
       transform="matrix(0.72366108,-0.69015552,0.69015552,0.72366108,0,0)"
       ry="6.6975551"
       y="519.01056"
       x="98.599983"
       height="13.39511"
       width="41.012188"
       id="rect4296"
       style="fill:#008080;fill-opacity:1;stroke:none;stroke-width:10;stroke-linecap:round;stroke-linejoin:round;stroke-miterlimit:4;stroke-dasharray:none;stroke-opacity:1" />
    <rect
       transform="matrix(0.72366108,-0.69015552,0.69015552,0.72366108,0,0)"
       ry="6.6975551"
       y="677.75739"
       x="153.37637"
       height="13.39511"
       width="41.012188"
       id="rect4298"
       style="fill:#ffe680;fill-opacity:1;stroke:none;stroke-width:10;stroke-linecap:round;stroke-linejoin:round;stroke-miterlimit:4;stroke-dasharray:none;stroke-opacity:1" />
    <rect
       inkscape:transform-center-y="2.1213116"
       inkscape:transform-center-x="4.2426486"
       transform="matrix(-0.63094166,-0.77583028,0.77583028,-0.63094166,0,0)"
       ry="6.6975551"
       y="-74.385643"
       x="-362.6235"
       height="13.39511"
       width="41.012188"
       id="rect4300"
       style="fill:#c480a3;fill-opacity:1;stroke:none;stroke-width:10;stroke-linecap:round;stroke-linejoin:round;stroke-miterlimit:4;stroke-dasharray:none;stroke-opacity:1" />
    <rect
       inkscape:transform-center-y="2.1213183"
       inkscape:transform-center-x="4.242651"
       transform="matrix(-0.63094166,-0.77583028,0.77583028,-0.63094166,0,0)"
       ry="6.6975551"
       y="75.162178"
       x="-360.28979"
       height="13.39511"
       width="41.012188"
       id="rect4302"
       style="fill:#c480a3;fill-opacity:1;stroke:none;stroke-width:10;stroke-linecap:round;stroke-linejoin:round;stroke-miterlimit:4;stroke-dasharray:none;stroke-opacity:1" />
    <rect
       inkscape:transform-center-y="2.121333"
       inkscape:transform-center-x="4.2426357"
       transform="matrix(-0.63094166,-0.77583028,0.77583028,-0.63094166,0,0)"
       ry="6.6975551"
       y="119.17899"
       x="-489.96255"
       height="13.39511"
       width="41.012188"
       id="rect4304"
       style="fill:#c480a3;fill-opacity:1;stroke:none;stroke-width:10;stroke-linecap:round;stroke-linejoin:round;stroke-miterlimit:4;stroke-dasharray:none;stroke-opacity:1" />
    <rect
       inkscape:transform-center-y="2.1213021"
       inkscape:transform-center-x="4.2426555"
       transform="matrix(-0.63094166,-0.77583028,0.77583028,-0.63094166,0,0)"
       ry="6.6975551"
       y="255.04883"
       x="-623.24371"
       height="13.39511"
       width="41.012188"
       id="rect4306"
       style="fill:#c480a3;fill-opacity:1;stroke:none;stroke-width:10;stroke-linecap:round;stroke-linejoin:round;stroke-miterlimit:4;stroke-dasharray:none;stroke-opacity:1" />
    <flowRoot
       xml:space="preserve"
       id="flowRoot5870"
       style="font-style:normal;font-weight:normal;font-size:180px;line-height:125%;font-family:sans-serif;letter-spacing:0px;word-spacing:0px;fill:#000000;fill-opacity:1;stroke:none;stroke-width:1px;stroke-linecap:butt;stroke-linejoin:miter;stroke-opacity:1"
       transform="translate(16.970562,-100.40916)"><flowRegion
         id="flowRegion5872"><rect
           id="rect5874"
           width="551.54327"
           height="216.37468"
           x="94.752312"
           y="720.02203" /></flowRegion><flowPara
         id="flowPara5876"
         style="fill:#007dc6;fill-opacity:1">donut</flowPara></flowRoot>  </g>
</svg>
