<?xml version="1.0" encoding="UTF-8" standalone="no"?>
<!-- Created with Inkscape (http://www.inkscape.org/) -->

<svg
   xmlns:dc="http://purl.org/dc/elements/1.1/"
   xmlns:cc="http://creativecommons.org/ns#"
   xmlns:rdf="http://www.w3.org/1999/02/22-rdf-syntax-ns#"
   xmlns:svg="http://www.w3.org/2000/svg"
   xmlns="http://www.w3.org/2000/svg"
   xmlns:sodipodi="http://sodipodi.sourceforge.net/DTD/sodipodi-0.dtd"
   xmlns:inkscape="http://www.inkscape.org/namespaces/inkscape"
   width="400"
   height="400"
   viewBox="0 0 400 400.00001"
   id="svg2"
   version="1.1"
   inkscape:version="0.91 r13725"
   sodipodi:docname="elephant.svg">
  <defs
     id="defs4">
    <inkscape:path-effect
       effect="spiro"
       id="path-effect4316"
       is_visible="true" />
    <inkscape:path-effect
       effect="spiro"
       id="path-effect4296"
       is_visible="true" />
    <inkscape:path-effect
       effect="spiro"
       id="path-effect4250"
       is_visible="true" />
    <inkscape:path-effect
       effect="spiro"
       id="path-effect4236"
       is_visible="true" />
    <inkscape:path-effect
       effect="spiro"
       id="path-effect4232"
       is_visible="true" />
    <inkscape:path-effect
       effect="spiro"
       id="path-effect4228"
       is_visible="true" />
    <inkscape:path-effect
       effect="spiro"
       id="path-effect4220"
       is_visible="true" />
    <inkscape:path-effect
       effect="spiro"
       id="path-effect4168"
       is_visible="true" />
    <inkscape:path-effect
       effect="spiro"
       id="path-effect4168-4"
       is_visible="true" />
    <inkscape:path-effect
       effect="spiro"
       id="path-effect4168-7"
       is_visible="true" />
    <inkscape:path-effect
       effect="spiro"
       id="path-effect4250-9"
       is_visible="true" />
    <inkscape:path-effect
       effect="spiro"
       id="path-effect4250-8"
       is_visible="true" />
  </defs>
  <sodipodi:namedview
     id="base"
     pagecolor="#ffffff"
     bordercolor="#666666"
     borderopacity="1.0"
     inkscape:pageopacity="0.0"
     inkscape:pageshadow="2"
     inkscape:zoom="1.979899"
     inkscape:cx="198.94833"
     inkscape:cy="216.5465"
     inkscape:document-units="px"
     inkscape:current-layer="layer1"
     showgrid="false"
     units="px"
     showguides="false"
     inkscape:window-width="1920"
     inkscape:window-height="1018"
     inkscape:window-x="-8"
     inkscape:window-y="-8"
     inkscape:window-maximized="1" />
  <metadata
     id="metadata7">
    <rdf:RDF>
      <cc:Work
         rdf:about="">
        <dc:format>image/svg+xml</dc:format>
        <dc:type
           rdf:resource="http://purl.org/dc/dcmitype/StillImage" />
        <dc:title></dc:title>
      </cc:Work>
    </rdf:RDF>
  </metadata>
  <g
     inkscape:label="Layer 1"
     inkscape:groupmode="layer"
     id="layer1"
     transform="translate(0,-652.36216)">
    <ellipse
       style="opacity:1;fill:#ffaaaa;fill-opacity:1;stroke:#da7676;stroke-width:4.2626338;stroke-linecap:round;stroke-linejoin:miter;stroke-miterlimit:4;stroke-dasharray:none;stroke-opacity:1"
       id="path4242"
       cx="191.93095"
       cy="882.39948"
       rx="134.95317"
       ry="117.81001" />
    <ellipse
       style="opacity:0;fill:#800080;fill-opacity:1;stroke:#ff2a2a;stroke-width:10;stroke-linecap:round;stroke-linejoin:round;stroke-miterlimit:4;stroke-dasharray:none;stroke-opacity:1"
       id="path4152"
       cx="297.4899"
       cy="820.5321"
       rx="74.246216"
       ry="93.944183" />
    <path
       style="fill:#ffaaaa;fill-opacity:1;fill-rule:evenodd;stroke:#da7676;stroke-width:5.39602518;stroke-linecap:butt;stroke-linejoin:miter;stroke-miterlimit:4;stroke-dasharray:none;stroke-opacity:1"
       d="m 240.75204,711.98724 c 1.55104,-8.52598 6.26262,-16.43974 13.01874,-21.86679 6.75612,-5.42705 15.49962,-8.32149 24.15948,-7.99772 11.14158,0.41655 21.82942,6.16284 28.88483,14.79589 7.0554,8.63305 10.54037,19.94853 10.29427,31.09518 -0.2461,11.14664 -4.10031,22.08323 -10.28781,31.3581 -6.18749,9.27487 -14.64318,16.92684 -24.10587,22.82309 -3.81298,2.37589 -7.79604,4.47878 -11.90859,6.28726"
       id="path4166-7"
       inkscape:path-effect="#path-effect4168-4"
       inkscape:original-d="m 240.75204,711.98724 c 12.7245,-5.22873 24.01097,-30.05919 37.17822,-29.86451 70.28493,1.03918 63.96571,100.07226 4.78542,100.07226 -10.50597,0 -6.41545,15.16898 -11.90859,6.28726"
       inkscape:connector-curvature="0"
       sodipodi:nodetypes="cssc" />
    <circle
       style="opacity:1;fill:#ffaaaa;fill-opacity:1;stroke:#da7676;stroke-width:5.26944447;stroke-linecap:round;stroke-linejoin:round;stroke-miterlimit:4;stroke-dasharray:none;stroke-opacity:1"
       id="path4154"
       cx="214.32718"
       cy="775.98419"
       r="87.562408" />
    <path
       sodipodi:type="spiral"
       style="fill:#ffaaaa;fill-opacity:1;fill-rule:evenodd;stroke:#da7676;stroke-width:5;stroke-linecap:round;stroke-linejoin:miter;stroke-miterlimit:4;stroke-dasharray:none;stroke-opacity:1"
       id="path4160"
       sodipodi:cx="223.74879"
       sodipodi:cy="796.79358"
       sodipodi:expansion="8.1800003"
       sodipodi:revolution="5.4499998"
       sodipodi:radius="89.357117"
       sodipodi:argument="-31.203684"
       sodipodi:t0="0.55410343"
       d="m 224.42263,797.0297 c 0.0431,0.61562 -0.56923,1.03208 -1.12642,1.05542 -1.13628,0.0476 -1.88918,-1.08269 -1.90701,-2.11839 -0.0346,-2.00935 1.96622,-3.31768 3.809,-3.30933 3.42336,0.0155 5.61954,3.4303 5.54425,6.5869 -0.13464,5.64508 -5.77796,9.22062 -11.00816,9.00552 -9.04371,-0.37192 -14.70888,-9.43524 -14.23205,-17.85021 0.80014,-14.12067 14.9888,-22.88101 28.17826,-21.94829 21.54536,1.52362 34.79853,23.2316 33.11259,43.42586 -2.68808,32.19793 -35.21801,51.85483 -65.4916,48.97458 -30.98997,-2.9484 -56.37646,-26.17119 -66.44613,-54.96686"
       transform="matrix(0.880148,-0.24957686,0.25820741,0.91058415,-115.33483,117.20912)" />
    <path
       style="fill:#ffaaaa;fill-opacity:1;fill-rule:evenodd;stroke:#da7676;stroke-width:5.77277946;stroke-linecap:round;stroke-linejoin:miter;stroke-miterlimit:4;stroke-dasharray:none;stroke-opacity:1"
       d="m 174.58344,727.30447 c -1.0595,-9.09586 -5.45536,-17.76569 -12.16664,-23.99592 -6.71128,-6.23024 -15.68353,-9.97033 -24.83294,-10.35165 -6.5073,-0.2712 -13.06101,1.12054 -18.95691,3.88766 -5.89589,2.76712 -11.13139,6.89535 -15.30564,11.89478 -8.348484,9.99884 -12.257254,23.34849 -11.679057,36.36155 0.578198,13.01307 5.454329,25.64992 12.893217,36.34278 7.43888,10.69286 17.36333,19.51043 28.28595,26.60766 2.11182,1.37221 4.26273,2.68317 6.41935,3.98384 1.80644,1.08948 3.61714,2.17189 5.43204,3.24721"
       id="path4166"
       inkscape:path-effect="#path-effect4168"
       inkscape:original-d="M 174.58344,727.30447 C 161.9201,721.29084 150.68785,692.733 137.58386,692.9569 c -69.94722,1.19518 -63.658347,115.09443 -4.76244,115.09443 3.4002,0 5.26411,1.84507 6.41935,3.98384 2.39711,4.43787 1.74312,10.14022 5.43204,3.24721"
       inkscape:connector-curvature="0"
       sodipodi:nodetypes="csssc" />
    <path
       style="fill:#fa9ba4;fill-opacity:1;fill-rule:evenodd;stroke:#da7676;stroke-width:4.12280703;stroke-linecap:round;stroke-linejoin:miter;stroke-miterlimit:4;stroke-dasharray:none;stroke-opacity:1"
       d="m 160.69527,729.92068 c -0.75666,-6.49609 -3.8961,-12.68792 -8.68917,-17.13743 -4.79307,-4.44952 -11.20088,-7.12062 -17.73522,-7.39293 -4.64738,-0.19368 -9.3279,0.80029 -13.53862,2.77652 -4.21072,1.97622 -7.9498,4.92453 -10.93095,8.49502 -5.9623,7.14098 -8.75385,16.67502 -8.3409,25.96869 0.41294,9.29366 3.89537,18.31863 9.20805,25.95525 5.31269,7.63663 12.4005,13.93398 20.20118,19.00271 1.50822,0.98001 3.04436,1.91629 4.58458,2.84521 1.29012,0.77808 2.58328,1.55112 3.87945,2.31908"
       id="path4166-4"
       inkscape:path-effect="#path-effect4168-7"
       inkscape:original-d="m 160.69527,729.92068 c -9.04393,-4.29482 -17.06577,-24.69026 -26.42439,-24.53036 -49.95494,0.85356 -45.463557,82.19819 -3.40124,82.19819 2.42837,0 3.75952,1.31773 4.58458,2.84521 1.71198,3.16944 1.2449,7.24193 3.87945,2.31908"
       inkscape:connector-curvature="0"
       sodipodi:nodetypes="csssc" />
    <ellipse
       style="opacity:1;fill:#000000;fill-opacity:1;stroke:#000000;stroke-width:5.08693409;stroke-linecap:round;stroke-linejoin:miter;stroke-miterlimit:4;stroke-dasharray:none;stroke-opacity:1"
       id="path4206"
       cx="195.13626"
       cy="751.69366"
       rx="5.6369648"
       ry="5.8313432" />
    <ellipse
       ry="5.6741014"
       rx="5.4849644"
       cy="747.93848"
       cx="247.41492"
       id="ellipse4208"
       style="opacity:1;fill:#000000;fill-opacity:1;stroke:#000000;stroke-width:4.94976521;stroke-linecap:round;stroke-linejoin:miter;stroke-miterlimit:4;stroke-dasharray:none;stroke-opacity:1" />
    <ellipse
       style="opacity:1;fill:#ffffff;fill-opacity:1;stroke:#ffffff;stroke-width:2.13004708;stroke-linecap:round;stroke-linejoin:miter;stroke-miterlimit:4;stroke-dasharray:none;stroke-opacity:1"
       id="path4212"
       cx="198.30952"
       cy="748.77795"
       rx="0.56974226"
       ry="0.89530927" />
    <ellipse
       ry="0.8711673"
       rx="0.55437922"
       cy="745.10138"
       cx="250.50262"
       id="ellipse4216"
       style="opacity:1;fill:#ffffff;fill-opacity:1;stroke:#ffffff;stroke-width:2.07261038;stroke-linecap:round;stroke-linejoin:miter;stroke-miterlimit:4;stroke-dasharray:none;stroke-opacity:1" />
    <path
       style="fill:none;fill-rule:evenodd;stroke:#000000;stroke-width:0.87347239px;stroke-linecap:butt;stroke-linejoin:miter;stroke-opacity:1"
       d="m 191.60693,747.52877 -5.73521,-3.0882"
       id="path4218"
       inkscape:path-effect="#path-effect4220"
       inkscape:original-d="m 191.60693,747.52877 c -2.00051,-1.17436 -3.81061,-2.23282 -5.73521,-3.0882"
       inkscape:connector-curvature="0" />
    <path
       style="fill:none;fill-rule:evenodd;stroke:#000000;stroke-width:0.87347239px;stroke-linecap:butt;stroke-linejoin:miter;stroke-opacity:1"
       d="m 188.51874,749.29344 -3.52937,-0.44116"
       id="path4226"
       inkscape:path-effect="#path-effect4228"
       inkscape:original-d="m 188.51874,749.29344 c -1.17348,-0.16908 -2.35291,-0.2941 -3.52937,-0.44116"
       inkscape:connector-curvature="0" />
    <path
       style="fill:none;fill-rule:evenodd;stroke:#000000;stroke-width:0.87347239px;stroke-linecap:butt;stroke-linejoin:miter;stroke-opacity:1"
       d="m 251.25365,742.08304 2.91071,-3.22599"
       id="path4230"
       inkscape:path-effect="#path-effect4232"
       inkscape:original-d="m 251.25365,742.08304 c 1.33512,-0.92966 2.18498,-2.42166 2.91071,-3.22599"
       inkscape:connector-curvature="0" />
    <path
       style="fill:none;fill-rule:evenodd;stroke:#000000;stroke-width:0.87347239px;stroke-linecap:butt;stroke-linejoin:miter;stroke-opacity:1"
       d="m 252.48841,746.20526 3.97053,-2.20585"
       id="path4234"
       inkscape:path-effect="#path-effect4236"
       inkscape:original-d="m 252.48841,746.20526 c 2.02841,-0.59391 2.76037,-1.53354 3.97053,-2.20585"
       inkscape:connector-curvature="0" />
    <text
       xml:space="preserve"
       style="font-style:normal;font-weight:normal;font-size:11.25px;line-height:125%;font-family:sans-serif;letter-spacing:0px;word-spacing:0px;fill:#000000;fill-opacity:1;stroke:none;stroke-width:1px;stroke-linecap:butt;stroke-linejoin:miter;stroke-opacity:1;"
       x="-164.65486"
       y="698.30371"
       id="text4238"
       sodipodi:linespacing="125%"><tspan
         sodipodi:role="line"
         id="tspan4240"
         x="-164.65486"
         y="698.30371" /></text>
    <path
       style="fill:#ffaaaa;fill-opacity:1;fill-rule:evenodd;stroke:#da7676;stroke-width:4.64491653;stroke-linecap:round;stroke-linejoin:miter;stroke-miterlimit:4;stroke-dasharray:none;stroke-opacity:1"
       d="m 204.24659,956.90211 c 6.83764,15.16992 12.49093,30.87351 16.89146,46.92079 2.31499,8.442 4.33089,17.0986 8.62632,24.7259 2.14771,3.8136 4.86663,7.3399 8.24263,10.1255 3.37601,2.7855 7.43054,4.8108 11.75271,5.5004 5.37141,0.857 10.88718,-0.3653 15.95305,-2.3461 14.8832,-5.8193 26.91038,-18.5206 31.91024,-33.6987 4.99986,-15.17816 2.87613,-32.54093 -5.63463,-46.0665"
       id="path4248"
       inkscape:path-effect="#path-effect4250"
       inkscape:original-d="m 204.24659,956.90211 c -7.40046,15.30836 18.58369,29.99856 16.89146,46.92079 -3.29786,32.9786 -9.8225,47.3416 28.62166,40.3518 8.77037,-1.5946 6.50248,-1.7284 15.95305,-2.3461 18.30544,-1.1964 -10.80776,-63.6923 26.27561,-79.7652"
       inkscape:connector-curvature="0"
       sodipodi:nodetypes="csssc" />
    <path
       style="fill:#ffaaaa;fill-opacity:1;fill-rule:evenodd;stroke:#da7676;stroke-width:4.64491653;stroke-linecap:round;stroke-linejoin:miter;stroke-miterlimit:4;stroke-dasharray:none;stroke-opacity:1"
       d="m 176.25267,953.96185 c -6.83763,15.16992 -12.49091,30.87348 -16.89147,46.92075 -2.315,8.442 -4.33092,17.0985 -8.62635,24.7259 -2.14771,3.8136 -4.86662,7.3399 -8.24262,10.1254 -3.376,2.7856 -7.43051,4.8109 -11.75268,5.5005 -5.3714,0.857 -10.88718,-0.3653 -15.95306,-2.346 -14.883277,-5.8192 -26.910551,-18.5205 -31.910417,-33.6987 -4.999866,-15.17818 -2.876063,-32.54101 5.634813,-46.06656"
       id="path4248-8"
       inkscape:path-effect="#path-effect4250-9"
       inkscape:original-d="m 176.25267,953.96185 c 7.40046,15.30833 -18.58369,29.99853 -16.89147,46.92075 3.29787,32.9787 9.82251,47.3417 -28.62165,40.3518 -8.77037,-1.5946 -6.50248,-1.7283 -15.95306,-2.346 -18.305438,-1.1965 10.80777,-63.69233 -26.275604,-79.76526"
       inkscape:connector-curvature="0"
       sodipodi:nodetypes="csssc" />
    <path
       style="fill:#00aba3;fill-opacity:1;fill-rule:evenodd;stroke:#0094a3;stroke-width:3;stroke-linecap:butt;stroke-linejoin:miter;stroke-miterlimit:4;stroke-dasharray:none;stroke-opacity:1"
       d="m 217.676,696.34695 c -6.68189,1.99227 -10.1669,9.61594 -16.11587,13.15035 -2.13477,1.26831 -21.13282,17.38009 -24.33765,13.08431 -10.63374,-14.25355 9.63431,-65.81247 18.96925,-51.63267 4.46989,6.78976 29.09704,48.89811 40.95686,42.43344 11.07961,-6.03938 26.17269,-43.11036 18.02666,-54.02936 -5.68698,-7.62288 -40.07055,33.81136 -42.55991,37.38766"
       id="path4386"
       inkscape:connector-curvature="0" />
  </g>
</svg>
